PathFileType	3	(X/Y/Z)	D:\minhoCalibration\240510\subject3_KPNP\preferred\preferred06.trc
DataRate	CameraRate	NumFrames	NumMarkers	Units	OrigDataRate	OrigDataStartFrame	OrigNumFrames
200.0	200.0	15	10	mm	200.0	451	140	
Frame#	Time	Left_Ankle_Outer1			Left_Ankle_Inner1			Left_Knee_Outer1			Left_Knee_Inner1			Left_Wrist1			Right_Wrist1			Right_Knee_Inner1			Right_Knee_Outer1			Right_Ankle_Inner1			Right_Ankle_Outer1			
		X1	Y1	Z1	X2	Y2	Z2	X3	Y3	Z3	X4	Y4	Z4	X5	Y5	Z5	X6	Y6	Z6	X7	Y7	Z7	X8	Y8	Z8	X9	Y9	Z9	X10	Y10	Z10	
451	2.245	-282.2608	105.33395	-522.48132	-337.439	118.82059	-527.74561	-199.82809	506.03278	-355.06277	-305.34662	511.67935	-347.8598	-147.19579	886.99915	-519.46777	-502.75739	919.24518	-596.05206	-565.02002	458.92227	-594.13525	-640.05219	538.86719	-648.06238	-425.82712	272.97565	-947.52795	-509.19016	303.12918	-998.67523
452	2.25	-281.64481	106.47783	-522.02386	-336.89487	120.58974	-526.90521	-195.77208	507.28406	-357.13336	-301.22198	513.38092	-347.70782	-142.0215	890.62	-520.51355	-500.04971	924.95105	-584.13489	-565.52808	464.71185	-572.36249	-643.86322	545.17468	-624.58789	-432.83414	288.87897	-931.38232	-517.73889	317.64636	-981.13147
453	2.255	-281.33105	107.43413	-521.39941	-336.54587	121.83819	-525.80994	-191.86893	508.53516	-359.35986	-296.91925	514.98022	-347.71524	-136.33977	894.11334	-522.82507	-496.65063	931.30408	-572.20721	-564.52673	470.70093	-549.92993	-647.07922	552.01849	-600.08978	-440.1915	304.80704	-913.96906	-525.91461	333.01425	-961.9696
454	2.26	-280.78641	108.82668	-520.7207	-336.11588	123.508	-524.72552	-188.09665	509.91916	-361.80505	-292.67239	516.56976	-348.09454	-130.86455	897.27264	-525.71246	-493.59457	938.24158	-559.46472	-563.16309	477.71591	-527.13672	-650.02087	559.75714	-574.2392	-447.87244	321.01913	-895.85559	-534.388	350.12015	-942.68781
455	2.265	-280.20218	110.25652	-520.1087	-335.58597	125.2293	-523.68396	-184.39578	511.37842	-364.31604	-288.26541	518.60858	-348.45023	-125.02824	900.31335	-529.52173	-488.87024	945.05304	-547.92542	-561.21002	485.05145	-504.05585	-652.25885	568.11523	-547.07922	-455.89163	337.32794	-876.84772	-542.40582	367.68619	-921.66296
456	2.27	-279.70819	111.69563	-519.33624	-334.69827	127.2005	-523.05389	-180.63182	512.98114	-367.05426	-283.8421	520.62927	-348.94611	-118.77461	903.39496	-534.22491	-483.27475	952.2066	-536.33331	-558.51184	493.20471	-481.1897	-653.6192	577.19104	-518.68909	-464.27621	353.67404	-857.28125	-552.00635	385.18549	-898.87622
457	2.275	-279.59317	113.1007	-518.3595	-334.85001	129.10081	-520.9306	-177.09061	514.63391	-369.70981	-279.3783	522.84241	-349.7005	-114.0028	905.74969	-538.88818	-478.43875	959.19415	-525.41132	-555.40521	502.18701	-458.07278	-654.00055	587.3053	-489.75311	-473.12637	370.19815	-837.01123	-561.34906	403.59189	-875.94727
458	2.28	-278.74753	114.90163	-517.6546	-334.42923	130.93176	-519.63367	-173.39066	516.49774	-372.54602	-275.1004	525.29791	-350.53854	-108.58167	908.42761	-544.71246	-472.16812	966.39886	-514.58868	-552.05115	512.10181	-434.52036	-653.19714	598.64697	-460.46851	-482.52588	386.80136	-816.11169	-571.13165	421.87997	-852.74268
459	2.285	-278.45779	116.45876	-516.73895	-334.07129	132.72701	-518.15613	-169.89015	518.51044	-375.30429	-270.90366	527.59607	-351.42117	-104.22794	910.60693	-550.69397	-465.40753	973.69965	-506.18701	-548.42847	523.15308	-410.5022	-651.07458	611.4342	-431.17603	-492.44067	403.46909	-794.49512	-581.50946	440.7532	-828.3045
460	2.29	-278.19794	117.99233	-515.75769	-334.39084	134.50992	-515.70532	-166.25507	520.54108	-378.0694	-266.66504	530.20099	-352.57275	-100.28843	912.46625	-557.22406	-458.44562	981.10455	-497.17648	-544.36938	535.51007	-385.4126	-647.62195	625.45239	-402.15607	-502.2778	420.22928	-772.96478	-592.84705	459.46072	-802.48267
461	2.295	-277.88422	119.71204	-514.88965	-333.60788	136.7403	-514.78168	-162.43018	522.64532	-381.06378	-262.11905	532.81262	-353.91895	-96.361954	914.41772	-564.13025	-451.58362	989.01447	-488.82077	-539.97998	549.31378	-360.07166	-642.62769	640.70416	-373.51013	-513.25348	437.04532	-750.15826	-604.7276	478.33749	-775.73425
462	2.3	-277.61285	121.18073	-513.92664	-333.47705	138.7173	-512.96417	-158.80202	524.75781	-384.06369	-257.81305	535.50079	-355.05643	-93.626549	916.00232	-571.07355	-443.4465	997.112	-481.79874	-534.73254	564.28571	-334.40479	-636.62494	657.11517	-345.68216	-524.42126	454.35193	-727.29333	-616.94794	497.2153	-748.22803
463	2.305	-277.78214	122.69182	-513.11053	-333.40784	140.68301	-510.99515	-154.82063	526.89496	-387.47189	-252.9229	538.25153	-356.54016	-90.141342	917.78479	-578.70862	-436.26526	1004.6351	-476.2641	-528.8277	580.6427	-309.24304	-629.14954	674.88708	-318.68478	-536.62128	471.24454	-703.32709	-629.31152	515.56647	-719.44629
464	2.31	-277.94711	124.08884	-512.28827	-333.19989	143.03584	-509.30399	-150.99994	528.9176	-390.98792	-248.59419	540.87488	-357.50024	-87.771362	919.33148	-586.25616	-428.9324	1012.648	-470.77716	-521.61786	597.84662	-283.87036	-620.55231	693.50134	-292.29208	-549.45782	488.33783	-678.57031	-644.28766	536.21973	-688.68652
465	2.315	-278.17215	125.44743	-511.46622	-333.94693	144.61169	-506.56216	-147.71289	530.57416	-394.83749	-243.47453	543.76855	-358.35397	-85.995903	920.63708	-593.76343	-421.65918	1020.1041	-466.35013	-513.26764	615.9035	-258.96436	-610.62775	712.84167	-266.79602	-562.99487	505.10144	-652.77356	-654.461	551.59753	-659.27771
